<?xml version="1.0" encoding="UTF-8"?>
<svg width="25px" height="17px" viewBox="0 0 25 17" version="1.1" xmlns="http://www.w3.org/2000/svg" xmlns:xlink="http://www.w3.org/1999/xlink">
    <!-- Generator: Sketch 47.1 (45422) - http://www.bohemiancoding.com/sketch -->
    <title>Group 29</title>
    <desc>Created with Sketch.</desc>
    <defs>
        <linearGradient x1="50%" y1="-2.48949813e-15%" x2="50%" y2="96.4077032%" id="linearGradient-1">
            <stop stop-color="#FFD3A0" offset="0%"></stop>
            <stop stop-color="#EA8E22" offset="100%"></stop>
        </linearGradient>
        <path d="M11.26512,7.72832 C11.8392029,7.72832 12.2354389,7.65968069 12.45384,7.5224 C12.6722411,7.38511931 12.78144,7.0668825 12.78144,6.56768 L12.78144,4.84544 C12.78144,4.57087863 12.6972008,4.34624087 12.52872,4.17152 C12.3602392,3.99679913 12.1324814,3.90944 11.84544,3.90944 C11.5084783,3.90944 11.2682407,4.01551894 11.12472,4.22768 C10.9811993,4.43984106 10.90944,4.645759 10.90944,4.84544 L10.90944,5.9312 L9,5.9312 L9,4.82672 C9,4.43983807 9.07487925,4.07168175 9.22464,3.72224 C9.37440075,3.37279825 9.58031869,3.07328125 9.8424,2.82368 C10.1044813,2.57407875 10.4102383,2.37440075 10.75968,2.22464 C11.1091217,2.07487925 11.483518,2 11.88288,2 C12.4070426,2 12.8407183,2.10295897 13.18392,2.30888 C13.5271217,2.51480103 13.7860791,2.72383894 13.9608,2.936 C14.0856006,3.08576075 14.1947995,3.23551925 14.2884,3.38528 C14.3820005,3.53504075 14.4599997,3.71599894 14.5224,3.92816 C14.6347206,4.34000206 14.69088,4.95151594 14.69088,5.76272 C14.69088,6.22448231 14.6815201,6.59887856 14.6628,6.88592 C14.6440799,7.17296144 14.5972804,7.41007906 14.5224,7.59728 C14.4350396,7.796961 14.3133608,7.96543931 14.15736,8.10272 C14.0013592,8.24000069 13.7860814,8.38975919 13.51152,8.552 C13.8110415,8.73920094 14.0387992,8.91391919 14.1948,9.07616 C14.3508008,9.23840081 14.4662396,9.42559894 14.54112,9.63776 C14.6160004,9.86240112 14.6596799,10.1275985 14.67216,10.43336 C14.6846401,10.7391215 14.69088,11.1291176 14.69088,11.60336 C14.69088,12.0401622 14.6815201,12.4020786 14.6628,12.68912 C14.6440799,12.9761614 14.6160002,13.2132791 14.57856,13.40048 C14.5411198,13.600161 14.4912003,13.7686393 14.4288,13.90592 C14.3663997,14.0432007 14.2852805,14.1867193 14.18544,14.33648 C13.9483188,14.6859217 13.6456818,14.9760788 13.27752,15.20696 C12.9093582,15.4378412 12.425763,15.55328 11.82672,15.55328 C11.5271985,15.55328 11.2089617,15.5033605 10.872,15.40352 C10.5350383,15.3036795 10.2292814,15.1414411 9.95472,14.9168 C9.68015863,14.6921589 9.4524009,14.3988818 9.27144,14.03696 C9.0904791,13.6750382 9,13.2320026 9,12.70784 L9,11.62208 L10.90944,11.62208 L10.90944,12.61424 C10.90944,12.9137615 10.9936792,13.160239 11.16216,13.35368 C11.3306408,13.547121 11.5583986,13.64384 11.84544,13.64384 C12.1324814,13.64384 12.3602392,13.547121 12.52872,13.35368 C12.6972008,13.160239 12.78144,12.9012816 12.78144,12.5768 L12.78144,10.66736 C12.78144,10.1431974 12.681601,9.80000081 12.48192,9.63776 C12.3695994,9.5379195 12.216721,9.47552012 12.02328,9.45056 C11.829839,9.42559988 11.5771216,9.41312 11.26512,9.41312 L11.26512,7.72832 Z" id="path-2"></path>
        <filter x="-26.4%" y="-11.1%" width="152.7%" height="122.1%" filterUnits="objectBoundingBox" id="filter-3">
            <feOffset dx="0" dy="0" in="SourceAlpha" result="shadowOffsetOuter1"></feOffset>
            <feGaussianBlur stdDeviation="0.5" in="shadowOffsetOuter1" result="shadowBlurOuter1"></feGaussianBlur>
            <feColorMatrix values="0 0 0 0 1   0 0 0 0 0.993778629   0 0 0 0 0.97993608  0 0 0 1 0" type="matrix" in="shadowBlurOuter1"></feColorMatrix>
        </filter>
    </defs>
    <g id="Page-1" stroke="none" stroke-width="1" fill="none" fill-rule="evenodd">
        <g id="iPhone-8" transform="translate(-1441.000000, -992.000000)">
            <g id="Group-29" transform="translate(1441.000000, 992.000000)">
                <path d="M21.8981135,7.35928406 L19.0086438,8.87126176 C17.9805104,9.40925487 16.7109277,9.02910948 16.1476508,8.0146076 L16.1476508,8.0146076 L13.1524355,2.62001089 C13.502796,2.35399266 13.7291778,1.93210562 13.7291778,1.45714286 C13.7291778,0.652385079 13.0792686,-5.68434189e-14 12.2775649,-5.68434189e-14 C11.4758612,-5.68434189e-14 10.825952,0.652385079 10.825952,1.45714286 C10.825952,1.92906784 11.0494472,2.34859385 11.3959871,2.61488757 L8.32086196,7.9263243 C8.30918585,7.94649156 8.29718087,7.96646662 8.28485182,7.98624146 C7.66002185,8.98842009 6.34107079,9.29432162 5.33889216,8.66949166 L5.33889216,8.66949166 L2.75758306,7.06011861 C2.85088322,6.86770627 2.90322581,6.65159373 2.90322581,6.42320935 C2.90322581,5.61845157 2.25331657,4.96606649 1.4516129,4.96606649 C0.649909234,4.96606649 4.54747351e-13,5.61845157 4.54747351e-13,6.42320935 C4.54747351e-13,7.22796713 0.649909234,7.88035221 1.4516129,7.88035221 C1.48532048,7.88035221 1.51875971,7.87919893 1.55189359,7.87692956 L3.65992797,16.1922213 L21.0629685,16.1922213 L23.118513,8.26388466 C23.1598404,8.2674341 23.2016621,8.2692454 23.2439053,8.2692454 C24.045609,8.2692454 24.6955182,7.61686032 24.6955182,6.81210254 C24.6955182,6.00734476 24.045609,5.35495969 23.2439053,5.35495969 C22.4422017,5.35495969 21.7922924,6.00734476 21.7922924,6.81210254 C21.7922924,7.00562543 21.829875,7.19033699 21.8981135,7.35928406 Z" id="Combined-Shape" fill="url(#linearGradient-1)"></path>
                <g id="3">
                    <use fill="black" fill-opacity="1" filter="url(#filter-3)" xlink:href="#path-2"></use>
                    <use fill="#A65900" fill-rule="evenodd" xlink:href="#path-2"></use>
                </g>
            </g>
        </g>
    </g>
</svg>