<?xml version="1.0" encoding="UTF-8"?>
<svg width="25px" height="18px" viewBox="0 0 25 18" version="1.1" xmlns="http://www.w3.org/2000/svg" xmlns:xlink="http://www.w3.org/1999/xlink">
    <!-- Generator: Sketch 47.1 (45422) - http://www.bohemiancoding.com/sketch -->
    <title>Group 28 Copy</title>
    <desc>Created with Sketch.</desc>
    <defs>
        <linearGradient x1="94.3747791%" y1="49.4675189%" x2="5.07571934%" y2="49.4675189%" id="linearGradient-1">
            <stop stop-color="#A6A6A6" offset="0%"></stop>
            <stop stop-color="#C4C4C4" offset="11.5752551%"></stop>
            <stop stop-color="#D0D0D0" offset="47.8934152%"></stop>
            <stop stop-color="#CDCDCD" offset="89.8167331%"></stop>
            <stop stop-color="#A6A6A6" offset="100%"></stop>
        </linearGradient>
        <path d="M9,16.44096 L9,14.64384 L12.44448,8.148 C12.6192009,7.82351838 12.7190399,7.53960122 12.744,7.29624 C12.7689601,7.05287878 12.78144,6.75024181 12.78144,6.38832 C12.78144,6.22607919 12.77832,6.0544809 12.77208,5.87352 C12.76584,5.6925591 12.7315203,5.53344069 12.66912,5.39616 C12.6067197,5.25887931 12.5131206,5.14344047 12.38832,5.04984 C12.2635194,4.95623953 12.0825612,4.90944 11.84544,4.90944 C11.5583986,4.90944 11.3306408,4.99055919 11.16216,5.1528 C10.9936792,5.31504081 10.90944,5.55215844 10.90944,5.86416 L10.90944,6.94992 L9,6.94992 L9,5.9016 C9,5.502238 9.07487925,5.12784175 9.22464,4.7784 C9.37440075,4.42895825 9.58031869,4.12320131 9.8424,3.86112 C10.0920012,3.59903869 10.3915183,3.39000078 10.74096,3.234 C11.0904017,3.07799922 11.464798,3 11.86416,3 C12.3633625,3 12.7907982,3.0904791 13.14648,3.27144 C13.5021618,3.4524009 13.7985588,3.69887844 14.03568,4.01088 C14.2603211,4.32288156 14.4256795,4.678558 14.53176,5.07792 C14.6378405,5.477282 14.69088,5.90159775 14.69088,6.35088 C14.69088,6.67536162 14.6846401,6.94679891 14.67216,7.1652 C14.6596799,7.38360109 14.6347202,7.592639 14.59728,7.79232 C14.5598398,7.992001 14.4974404,8.191679 14.41008,8.39136 C14.3227196,8.591041 14.2041607,8.83439856 14.0544,9.12144 L11.2464,14.53152 L14.69088,14.53152 L14.69088,16.44096 L9,16.44096 Z" id="path-2"></path>
        <filter x="-26.4%" y="-11.2%" width="152.7%" height="122.3%" filterUnits="objectBoundingBox" id="filter-3">
            <feOffset dx="0" dy="0" in="SourceAlpha" result="shadowOffsetOuter1"></feOffset>
            <feGaussianBlur stdDeviation="0.5" in="shadowOffsetOuter1" result="shadowBlurOuter1"></feGaussianBlur>
            <feColorMatrix values="0 0 0 0 1   0 0 0 0 1   0 0 0 0 1  0 0 0 0.5 0" type="matrix" in="shadowBlurOuter1"></feColorMatrix>
        </filter>
    </defs>
    <g id="Page-1" stroke="none" stroke-width="1" fill="none" fill-rule="evenodd">
        <g id="iPhone-8" transform="translate(-1393.000000, -992.000000)">
            <g id="Group-28-Copy" transform="translate(1393.000000, 992.000000)">
                <path d="M21.8981135,7.35928406 L19.0086438,8.87126176 C17.9805104,9.40925487 16.7109277,9.02910948 16.1476508,8.0146076 L16.1476508,8.0146076 L13.1524355,2.62001089 C13.502796,2.35399266 13.7291778,1.93210562 13.7291778,1.45714286 C13.7291778,0.652385079 13.0792686,-5.68434189e-14 12.2775649,-5.68434189e-14 C11.4758612,-5.68434189e-14 10.825952,0.652385079 10.825952,1.45714286 C10.825952,1.92906784 11.0494472,2.34859385 11.3959871,2.61488757 L8.32086196,7.9263243 C8.30918585,7.94649156 8.29718087,7.96646662 8.28485182,7.98624146 C7.66002185,8.98842009 6.34107079,9.29432162 5.33889216,8.66949166 L5.33889216,8.66949166 L2.75758306,7.06011861 C2.85088322,6.86770627 2.90322581,6.65159373 2.90322581,6.42320935 C2.90322581,5.61845157 2.25331657,4.96606649 1.4516129,4.96606649 C0.649909234,4.96606649 4.54747351e-13,5.61845157 4.54747351e-13,6.42320935 C4.54747351e-13,7.22796713 0.649909234,7.88035221 1.4516129,7.88035221 C1.48532048,7.88035221 1.51875971,7.87919893 1.55189359,7.87692956 L3.65992797,16.1922213 L21.0629685,16.1922213 L23.118513,8.26388466 C23.1598404,8.2674341 23.2016621,8.2692454 23.2439053,8.2692454 C24.045609,8.2692454 24.6955182,7.61686032 24.6955182,6.81210254 C24.6955182,6.00734476 24.045609,5.35495969 23.2439053,5.35495969 C22.4422017,5.35495969 21.7922924,6.00734476 21.7922924,6.81210254 C21.7922924,7.00562543 21.829875,7.19033699 21.8981135,7.35928406 Z" id="Combined-Shape" fill="url(#linearGradient-1)"></path>
                <g id="2">
                    <use fill="black" fill-opacity="1" filter="url(#filter-3)" xlink:href="#path-2"></use>
                    <use fill="#5E5E5E" fill-rule="evenodd" xlink:href="#path-2"></use>
                </g>
            </g>
        </g>
    </g>
</svg>