<?xml version="1.0" encoding="UTF-8"?>
<svg width="25px" height="19px" viewBox="0 0 25 19" version="1.1" xmlns="http://www.w3.org/2000/svg" xmlns:xlink="http://www.w3.org/1999/xlink">
    <!-- Generator: Sketch 47.1 (45422) - http://www.bohemiancoding.com/sketch -->
    <title>Group 27 Copy</title>
    <desc>Created with Sketch.</desc>
    <defs>
        <linearGradient x1="50%" y1="13.8295737%" x2="50%" y2="85.3165627%" id="linearGradient-1">
            <stop stop-color="#FFF0A9" offset="0%"></stop>
            <stop stop-color="#FFBB35" offset="100%"></stop>
        </linearGradient>
        <polygon id="path-2" points="11.90944 17.32864 11.90944 6.02176 10 7.42576 10 5.404 11.90944 4 13.81888 4 13.81888 17.32864"></polygon>
        <filter x="-39.3%" y="-11.3%" width="178.6%" height="122.5%" filterUnits="objectBoundingBox" id="filter-3">
            <feOffset dx="0" dy="0" in="SourceAlpha" result="shadowOffsetOuter1"></feOffset>
            <feGaussianBlur stdDeviation="0.5" in="shadowOffsetOuter1" result="shadowBlurOuter1"></feGaussianBlur>
            <feColorMatrix values="0 0 0 0 1   0 0 0 0 0.993778629   0 0 0 0 0.97993608  0 0 0 1 0" type="matrix" in="shadowBlurOuter1"></feColorMatrix>
        </filter>
    </defs>
    <g id="Page-1" stroke="none" stroke-width="1" fill="none" fill-rule="evenodd">
        <g id="iPhone-8" transform="translate(-1344.000000, -992.000000)">
            <g id="Group-27-Copy" transform="translate(1344.000000, 992.000000)">
                <path d="M22.0623494,7.35928406 L19.1287787,8.88291135 C18.1036006,9.41536464 16.840869,9.03734938 16.2769011,8.0291644 L16.2769011,8.0291644 L13.2510787,2.62001089 C13.604067,2.35399266 13.8321466,1.93210562 13.8321466,1.45714286 C13.8321466,0.652385079 13.1773631,-5.68434189e-14 12.3696466,-5.68434189e-14 C11.5619302,-5.68434189e-14 10.9071466,0.652385079 10.9071466,1.45714286 C10.9071466,1.92906784 11.1323181,2.34859385 11.481457,2.61488757 L8.37384549,7.94247868 C8.3644727,7.95854708 8.35489065,7.97449249 8.34510177,7.99031085 C7.72363166,8.99457645 6.40571248,9.30489351 5.40144688,8.6834234 L2.77826493,7.06011861 C2.87226485,6.86770627 2.925,6.65159373 2.925,6.42320935 C2.925,5.61845157 2.27021645,4.96606649 1.4625,4.96606649 C0.654783553,4.96606649 4.54747351e-13,5.61845157 4.54747351e-13,6.42320935 C4.54747351e-13,7.22796713 0.654783553,7.88035221 1.4625,7.88035221 C1.49207981,7.88035221 1.52145451,7.87947727 1.55059947,7.87775195 L3.68737743,17.1922213 L21.2209407,17.1922213 L23.3151924,8.26568477 C23.3492321,8.26804538 23.3835927,8.2692454 23.4182346,8.2692454 C24.2259511,8.2692454 24.8807346,7.61686032 24.8807346,6.81210254 C24.8807346,6.00734476 24.2259511,5.35495969 23.4182346,5.35495969 C22.6105182,5.35495969 21.9557346,6.00734476 21.9557346,6.81210254 C21.9557346,7.00562543 21.9935991,7.19033699 22.0623494,7.35928406 Z" id="Combined-Shape" fill="url(#linearGradient-1)"></path>
                <g id="1">
                    <use fill="black" fill-opacity="1" filter="url(#filter-3)" xlink:href="#path-2"></use>
                    <use fill="#CB7E00" fill-rule="evenodd" xlink:href="#path-2"></use>
                </g>
            </g>
        </g>
    </g>
</svg>