<?xml version="1.0" encoding="UTF-8"?>
<svg width="14px" height="14px" viewBox="0 0 14 14" version="1.1" xmlns="http://www.w3.org/2000/svg" xmlns:xlink="http://www.w3.org/1999/xlink">
    <!-- Generator: Sketch 47.1 (45422) - http://www.bohemiancoding.com/sketch -->
    <title>Group 25</title>
    <desc>Created with Sketch.</desc>
    <defs>
        <polygon id="path-1" points="7.068514 10.7250496 3.23799084 12.7428655 3.96955566 8.46906287 0.870597331 5.44233903 5.15325242 4.81879962 7.068514 0.930365519 8.98377558 4.81879962 13.2664307 5.44233903 10.1674723 8.46906287 10.8990372 12.7428655"></polygon>
        <path d="M7.06113837,10.7289349 L7.068514,10.7250496 L10.8990372,12.7428655 L10.1674723,8.46906287 L13.2664307,5.44233903 L8.98377558,4.81879962 L7.068514,0.930365519 L7.06113837,0.945339786 L7.06113837,7.54979627 L7.06113837,10.7289349 Z" id="path-3"></path>
        <path d="M0.944848988,5.51485993 L0.870597331,5.44233903 L5.15325242,4.81879962 L7.01715504,1.03463635 L7.07161994,7.3371072 L0.944848988,5.51485993 Z" id="path-5"></path>
        <linearGradient x1="3.90944649%" y1="36.389214%" x2="83.1793182%" y2="49.6900684%" id="linearGradient-7">
            <stop stop-color="#FFE051" offset="0%"></stop>
            <stop stop-color="#FFA100" offset="100%"></stop>
        </linearGradient>
    </defs>
    <g id="Page-1" stroke="none" stroke-width="1" fill="none" fill-rule="evenodd">
        <g id="iPhone-8" transform="translate(-1952.000000, -918.000000)">
            <g id="Group-25" transform="translate(1952.013094, 918.420827)">
                <mask id="mask-2" fill="white">
                    <use xlink:href="#path-1"></use>
                </mask>
                <use id="Mask" fill="#FFDE70" xlink:href="#path-1"></use>
                <mask id="mask-4" fill="white">
                    <use xlink:href="#path-3"></use>
                </mask>
                <use id="Combined-Shape" fill="#FBC100" xlink:href="#path-3"></use>
                <mask id="mask-6" fill="white">
                    <use xlink:href="#path-5"></use>
                </mask>
                <use id="Combined-Shape" fill="#FFEDB8" xlink:href="#path-5"></use>
                <path d="M7.06610817,0.935249923 L7.068514,0.930365519 L8.98377558,4.81879962 L13.2664307,5.44233903 L13.2107729,5.49669946 L7.01075306,7.34073269 L7.06610817,0.935249923 Z" id="Combined-Shape" fill="#FFDA60"></path>
                <path d="M7.04489238,10.231649 L10.357448,11.9766136 L9.72503141,8.28203523 L12.3958333,5.67348778 L8.70404154,5.13597598 L7.04489238,1.76751069 L5.38574323,5.13597598 L1.69395143,5.67348778 L4.36475335,8.28203523 L3.7323368,11.9766136 L7.04489238,10.231649 Z M2.67921928,13.5 L3.5046388,8.6165499 L0,5.15005395 L4.84246271,4.43603874 L7,0 L9.15753729,4.43603874 L14,5.15005395 L10.4953612,8.6165499 L11.3207807,13.5 L7,11.1949729 L2.67921928,13.5 Z" id="Mask" fill="url(#linearGradient-7)" fill-rule="nonzero"></path>
            </g>
        </g>
    </g>
</svg>