<svg id="svg" version="1.1" width="400" height="398.6710963455149" viewBox="0 0 400 398.6710963455149" xmlns="http://www.w3.org/2000/svg" xmlns:xlink="http://www.w3.org/1999/xlink" ><g id="svgg"><path id="path0" d="M197.242 4.487 C 196.636 6.296,195.996 8.136,195.821 8.574 C 195.646 9.013,191.168 22.473,185.870 38.485 C 180.573 54.497,176.080 67.956,175.886 68.395 C 175.692 68.833,174.722 71.615,173.730 74.576 C 171.283 81.883,168.357 90.354,165.879 97.308 C 164.746 100.489,163.221 104.796,162.490 106.879 C 161.758 108.963,160.419 112.732,159.514 115.254 C 158.608 117.777,157.689 120.438,157.471 121.168 C 157.060 122.542,153.031 124.660,126.620 137.386 C 123.769 138.760,116.231 142.439,109.870 145.562 C 103.509 148.685,95.434 152.633,91.924 154.336 C 81.413 159.435,56.664 171.601,15.454 191.926 C 2.581 198.275,-0.705 200.199,1.323 200.199 C 1.613 200.199,5.426 201.373,9.798 202.807 C 14.170 204.242,27.348 208.560,39.083 212.403 C 50.818 216.247,60.688 219.488,61.017 219.606 C 63.442 220.476,79.316 225.979,81.555 226.726 C 84.282 227.636,100.923 233.365,109.272 236.269 C 111.575 237.070,115.075 238.274,117.049 238.943 C 119.023 239.613,120.973 240.340,121.383 240.558 C 122.122 240.952,128.008 252.729,150.446 298.704 C 152.641 303.200,157.217 312.532,160.615 319.442 C 164.014 326.351,168.948 336.401,171.581 341.775 C 174.214 347.149,179.989 358.903,184.414 367.896 C 188.839 376.889,193.887 387.163,195.632 390.726 C 197.376 394.290,198.902 397.206,199.023 397.207 C 199.143 397.208,204.565 381.281,211.071 361.815 C 217.577 342.348,224.539 321.665,226.541 315.852 C 228.543 310.040,230.328 304.835,230.507 304.287 C 230.686 303.739,231.584 301.226,232.502 298.704 C 233.421 296.181,234.318 293.669,234.497 293.121 C 234.675 292.572,235.567 290.060,236.478 287.537 C 237.389 285.015,238.574 281.705,239.110 280.182 C 240.545 276.106,240.274 276.309,251.047 271.227 C 262.893 265.638,273.208 260.516,310.668 241.627 C 351.477 221.049,366.724 213.960,392.522 203.573 L 397.208 201.686 397.208 199.969 C 397.208 197.789,397.899 198.067,378.465 192.426 C 377.478 192.140,375.414 191.523,373.878 191.056 C 372.343 190.589,369.831 189.829,368.295 189.367 C 364.128 188.113,334.628 178.272,326.620 175.464 C 322.782 174.118,318.385 172.597,316.849 172.084 C 315.314 171.572,310.110 169.771,305.284 168.083 C 300.459 166.396,295.793 164.780,294.915 164.493 C 294.038 164.206,289.910 162.774,285.743 161.311 C 281.575 159.848,277.807 158.552,277.368 158.431 C 275.684 157.964,275.386 157.417,264.402 134.596 C 260.749 127.007,251.054 107.301,239.285 83.549 C 226.974 58.703,217.377 39.209,213.270 30.708 C 211.733 27.527,209.128 22.144,207.480 18.744 C 205.832 15.344,203.252 10.005,201.745 6.879 C 198.529 0.205,198.653 0.271,197.242 4.487 M202.008 38.793 C 202.455 39.720,205.941 46.580,209.755 54.038 C 213.570 61.496,218.075 70.379,219.767 73.779 C 245.256 124.991,262.413 159.745,262.413 160.165 C 262.413 160.452,257.881 162.920,252.343 165.649 C 234.088 174.644,199.271 191.886,168.938 206.951 C 151.766 215.480,138.924 221.636,138.722 221.434 C 138.364 221.076,162.116 149.460,177.443 104.686 C 178.795 100.738,180.599 95.444,181.454 92.921 C 182.308 90.399,184.999 82.502,187.435 75.374 C 192.244 61.299,193.782 56.712,194.724 53.639 C 197.204 45.549,198.693 40.647,199.085 39.282 C 199.695 37.158,199.741 37.087,200.522 37.098 C 200.916 37.104,201.534 37.809,202.008 38.793 M151.545 140.566 C 151.545 140.859,144.422 162.085,139.965 175.075 C 137.745 181.545,135.780 187.288,135.600 187.836 C 135.420 188.385,134.076 192.243,132.615 196.411 C 131.154 200.578,129.530 205.244,129.007 206.780 C 128.485 208.315,127.141 212.173,126.022 215.354 C 124.903 218.534,123.606 222.276,123.141 223.668 C 121.931 227.288,123.141 227.373,109.870 222.736 C 105.045 221.049,100.648 219.523,100.100 219.344 C 99.551 219.165,94.885 217.556,89.731 215.769 C 84.576 213.981,71.924 209.732,61.615 206.325 C 51.306 202.919,42.602 200.030,42.273 199.905 C 41.944 199.781,40.609 199.302,39.307 198.842 C 35.933 197.651,36.068 197.426,41.960 194.419 C 44.874 192.931,47.438 191.578,47.657 191.410 C 48.134 191.046,113.142 158.555,119.442 155.532 C 121.854 154.374,129.715 150.491,136.910 146.903 C 148.355 141.195,151.545 139.814,151.545 140.566 M282.670 174.326 C 288.089 176.108,295.663 178.641,299.501 179.956 C 303.340 181.271,318.684 186.437,333.599 191.436 C 356.143 198.992,360.718 200.647,360.718 201.246 C 360.718 201.935,315.500 224.937,286.740 238.878 C 275.996 244.086,249.204 257.234,240.104 261.763 L 233.947 264.828 228.738 263.055 C 213.281 257.794,178.596 245.891,165.902 241.492 C 157.896 238.718,149.911 235.956,148.158 235.355 C 143.488 233.754,143.614 233.465,150.422 230.168 C 153.562 228.648,161.515 224.760,168.096 221.530 C 179.316 216.022,185.907 212.804,202.393 204.786 C 206.122 202.973,214.197 199.034,220.339 196.035 C 226.481 193.035,234.734 189.021,238.681 187.115 C 242.627 185.209,251.600 180.837,258.621 177.400 C 265.642 173.962,271.708 171.136,272.102 171.118 C 272.495 171.101,277.251 172.544,282.670 174.326 M170.688 257.234 C 174.912 258.650,191.939 264.447,213.559 271.830 C 218.385 273.478,223.185 275.091,224.227 275.415 C 226.602 276.152,226.832 274.775,221.907 289.281 C 219.589 296.109,216.257 306.002,214.501 311.266 C 212.746 316.530,211.156 321.196,210.968 321.635 C 210.781 322.074,209.441 326.112,207.991 330.608 C 200.762 353.024,197.666 362.133,197.318 362.017 C 196.651 361.795,189.579 347.954,168.534 305.683 C 140.024 248.416,139.874 248.110,140.120 247.468 C 140.296 247.011,142.973 247.793,153.221 251.295 C 160.305 253.716,168.166 256.388,170.688 257.234 " stroke="none" fill="#2f2f2f" fill-rule="evenodd"></path></g></svg>